solid RM2005
facet normal 1.0 -7.126225614650196e-14 -7.785384517401461e-13
  outer loop
    vertex 601.9159369647958 25.429128889398303 21.999999999713726
    vertex 601.9159369647938 25.769870626507632 19.411809548688524
    vertex 601.9159369647979 25.769870626507632 24.58819045073893
  endloop
endfacet
facet normal 1.0 -7.126225614650196e-14 -7.785384517401461e-13
  outer loop
    vertex 601.9159369648004 26.768874851554312 26.99999999971372
    vertex 601.9159369647979 25.769870626507632 24.58819045073893
    vertex 601.9159369647938 25.769870626507632 19.411809548688524
  endloop
endfacet
facet normal 1.0 -7.126225614650196e-14 -7.785384517401461e-13
  outer loop
    vertex 601.9159369647929 26.768874851554312 16.999999999713804
    vertex 601.9159369648004 26.768874851554312 26.99999999971372
    vertex 601.9159369647938 25.769870626507632 19.411809548688524
  endloop
endfacet
facet normal 1.0 -7.126225614650196e-14 -7.785384517401461e-13
  outer loop
    vertex 601.9159369648016 28.35806107753261 29.07106781157922
    vertex 601.9159369648004 26.768874851554312 26.99999999971372
    vertex 601.9159369647929 26.768874851554312 16.999999999713804
  endloop
endfacet
facet normal 1.0 -7.126225614650196e-14 -7.785384517401461e-13
  outer loop
    vertex 601.9159369647963 27.50000000002403 21.70571690834423
    vertex 601.9159369648016 28.35806107753261 29.07106781157922
    vertex 601.9159369647929 26.768874851554312 16.999999999713804
  endloop
endfacet
facet normal 1.0 -7.126225614650196e-14 -7.785384517401461e-13
  outer loop
    vertex 601.9159369647974 27.75555630285603 23.6468597466131
    vertex 601.9159369648016 28.35806107753261 29.07106781157922
    vertex 601.9159369647963 27.50000000002403 21.70571690834423
  endloop
endfacet
facet normal 1.0 -7.126225614650196e-14 -7.785384517401461e-13
  outer loop
    vertex 601.9159369647994 28.50480947164176 25.45571690834419
    vertex 601.9159369648016 28.35806107753261 29.07106781157922
    vertex 601.9159369647974 27.75555630285603 23.6468597466131
  endloop
endfacet
facet normal 1.0 -7.126225614650196e-14 -7.785384517401461e-13
  outer loop
    vertex 601.915936964803 30.429128889398612 30.660254037558108
    vertex 601.9159369648016 28.35806107753261 29.07106781157922
    vertex 601.9159369647994 28.50480947164176 25.45571690834419
  endloop
endfacet
facet normal 1.0 -7.126225614650196e-14 -7.785384517401461e-13
  outer loop
    vertex 601.9159369648002 29.696699141125485 27.009017767243282
    vertex 601.915936964803 30.429128889398612 30.660254037558108
    vertex 601.9159369647994 28.50480947164176 25.45571690834419
  endloop
endfacet
facet normal 1.0 -7.126225614650196e-14 -7.785384517401461e-13
  outer loop
    vertex 601.9159369648013 31.250000000024624 28.20090743672746
    vertex 601.915936964803 30.429128889398612 30.660254037558108
    vertex 601.9159369648002 29.696699141125485 27.009017767243282
  endloop
endfacet
facet normal 1.0 -7.126225614650196e-14 -7.785384517401461e-13
  outer loop
    vertex 601.9159369648044 32.8409384383725 31.6592582626045
    vertex 601.915936964803 30.429128889398612 30.660254037558108
    vertex 601.9159369648013 31.250000000024624 28.20090743672746
  endloop
endfacet
facet normal 1.0 -7.126225614650196e-14 -7.785384517401461e-13
  outer loop
    vertex 601.9159369648023 33.05885716175576 28.950160605512224
    vertex 601.9159369648044 32.8409384383725 31.6592582626045
    vertex 601.9159369648013 31.250000000024624 28.20090743672746
  endloop
endfacet
facet normal 1.0 -7.126225614650196e-14 -7.785384517401461e-13
  outer loop
    vertex 601.9159369648042 35.429128889397475 31.99999999971383
    vertex 601.9159369648044 32.8409384383725 31.6592582626045
    vertex 601.9159369648023 33.05885716175576 28.950160605512224
  endloop
endfacet
facet normal 1.0 -7.126225614650196e-14 -7.785384517401461e-13
  outer loop
    vertex 601.9159369648021 35.00000000002522 29.205716908344222
    vertex 601.9159369648042 35.429128889397475 31.99999999971383
    vertex 601.9159369648023 33.05885716175576 28.950160605512224
  endloop
endfacet
facet normal 1.0 -7.126225614650196e-14 -7.785384517401461e-13
  outer loop
    vertex 601.9159369648025 36.94114283829178 28.950160605511684
    vertex 601.9159369648042 35.429128889397475 31.99999999971383
    vertex 601.9159369648021 35.00000000002522 29.205716908344222
  endloop
endfacet
facet normal 1.0 -7.126225614650196e-14 -7.785384517401461e-13
  outer loop
    vertex 601.9159369648047 38.017319340423896 31.6592582626045
    vertex 601.9159369648042 35.429128889397475 31.99999999971383
    vertex 601.9159369648025 36.94114283829178 28.950160605511684
  endloop
endfacet
facet normal 1.0 -7.126225614650196e-14 -7.785384517401461e-13
  outer loop
    vertex 601.9159369648015 38.750000000024365 28.200907436727533
    vertex 601.9159369648047 38.017319340423896 31.6592582626045
    vertex 601.9159369648025 36.94114283829178 28.950160605511684
  endloop
endfacet
facet normal 1.0 -7.126225614650196e-14 -7.785384517401461e-13
  outer loop
    vertex 601.9159369648036 40.42912888939778 30.660254037558182
    vertex 601.9159369648047 38.017319340423896 31.6592582626045
    vertex 601.9159369648015 38.750000000024365 28.200907436727533
  endloop
endfacet
facet normal 1.0 -7.126225614650196e-14 -7.785384517401461e-13
  outer loop
    vertex 601.915936964801 40.3033008589235 27.009017767243353
    vertex 601.9159369648036 40.42912888939778 30.660254037558182
    vertex 601.9159369648015 38.750000000024365 28.200907436727533
  endloop
endfacet
facet normal 1.0 -7.126225614650196e-14 -7.785384517401461e-13
  outer loop
    vertex 601.9159369648003 41.49519052840723 25.45571690834426
    vertex 601.9159369648036 40.42912888939778 30.660254037558182
    vertex 601.915936964801 40.3033008589235 27.009017767243353
  endloop
endfacet
facet normal 1.0 -7.126225614650196e-14 -7.785384517401461e-13
  outer loop
    vertex 601.915936964803 42.50019670126378 29.071067811579272
    vertex 601.9159369648036 40.42912888939778 30.660254037558182
    vertex 601.9159369648003 41.49519052840723 25.45571690834426
  endloop
endfacet
facet normal 1.0 -7.126225614650196e-14 -7.785384517401461e-13
  outer loop
    vertex 601.9159369647988 42.24444369719007 23.64685974661261
    vertex 601.915936964803 42.50019670126378 29.071067811579272
    vertex 601.9159369648003 41.49519052840723 25.45571690834426
  endloop
endfacet
facet normal 1.0 -7.126225614650196e-14 -7.785384517401461e-13
  outer loop
    vertex 601.9159369647977 42.50000000002206 21.70571690834374
    vertex 601.915936964803 42.50019670126378 29.071067811579272
    vertex 601.9159369647988 42.24444369719007 23.64685974661261
  endloop
endfacet
facet normal 1.0 -7.126225614650196e-14 -7.785384517401461e-13
  outer loop
    vertex 601.9159369647929 26.768874851554312 16.999999999713804
    vertex 601.9159369647911 28.35806107753261 14.928932187848302
    vertex 601.9159369647963 27.50000000002403 21.70571690834423
  endloop
endfacet
facet normal 1.0 -7.126225614650196e-14 -7.785384517401461e-13
  outer loop
    vertex 601.9159369647947 27.75555630285603 19.76457407007536
    vertex 601.9159369647963 27.50000000002403 21.70571690834423
    vertex 601.9159369647911 28.35806107753261 14.928932187848302
  endloop
endfacet
facet normal 1.0 -7.126225614650196e-14 -7.785384517401461e-13
  outer loop
    vertex 601.9159369647936 28.50480947164176 17.95571690834434
    vertex 601.9159369647947 27.75555630285603 19.76457407007536
    vertex 601.9159369647911 28.35806107753261 14.928932187848302
  endloop
endfacet
facet normal 1.0 -7.126225614650196e-14 -7.785384517401461e-13
  outer loop
    vertex 601.9159369647895 30.429128889398612 13.339745961869417
    vertex 601.9159369647936 28.50480947164176 17.95571690834434
    vertex 601.9159369647911 28.35806107753261 14.928932187848302
  endloop
endfacet
facet normal 1.0 -7.126225614650196e-14 -7.785384517401461e-13
  outer loop
    vertex 601.9159369647919 29.696699141125485 16.402416049445247
    vertex 601.9159369647936 28.50480947164176 17.95571690834434
    vertex 601.9159369647895 30.429128889398612 13.339745961869417
  endloop
endfacet
facet normal 1.0 -7.126225614650196e-14 -7.785384517401461e-13
  outer loop
    vertex 601.915936964791 31.250000000024624 15.21052637996107
    vertex 601.9159369647919 29.696699141125485 16.402416049445247
    vertex 601.9159369647895 30.429128889398612 13.339745961869417
  endloop
endfacet
facet normal 1.0 -7.126225614650196e-14 -7.785384517401461e-13
  outer loop
    vertex 601.9159369647894 32.8409384383725 12.340741736823098
    vertex 601.915936964791 31.250000000024624 15.21052637996107
    vertex 601.9159369647895 30.429128889398612 13.339745961869417
  endloop
endfacet
facet normal 1.0 -7.126225614650196e-14 -7.785384517401461e-13
  outer loop
    vertex 601.915936964791 33.05885716175576 14.461273211176378
    vertex 601.915936964791 31.250000000024624 15.21052637996107
    vertex 601.9159369647894 32.8409384383725 12.340741736823098
  endloop
endfacet
facet normal 1.0 -7.126225614650196e-14 -7.785384517401461e-13
  outer loop
    vertex 601.915936964789 35.429128889397475 11.99999999971377
    vertex 601.915936964791 33.05885716175576 14.461273211176378
    vertex 601.9159369647894 32.8409384383725 12.340741736823098
  endloop
endfacet
facet normal 1.0 -7.126225614650196e-14 -7.785384517401461e-13
  outer loop
    vertex 601.9159369647903 35.000000000022325 14.20571690834384
    vertex 601.915936964791 33.05885716175576 14.461273211176378
    vertex 601.915936964789 35.429128889397475 11.99999999971377
  endloop
endfacet
facet normal 1.0 -7.126225614650196e-14 -7.785384517401461e-13
  outer loop
    vertex 601.9159369647912 36.941142838293224 14.461273211176378
    vertex 601.9159369647903 35.000000000022325 14.20571690834384
    vertex 601.915936964789 35.429128889397475 11.99999999971377
  endloop
endfacet
facet normal 1.0 -7.126225614650196e-14 -7.785384517401461e-13
  outer loop
    vertex 601.91593696479 38.017319340423896 12.3407417368231
    vertex 601.9159369647912 36.941142838293224 14.461273211176378
    vertex 601.915936964789 35.429128889397475 11.99999999971377
  endloop
endfacet
facet normal 1.0 -7.126225614650196e-14 -7.785384517401461e-13
  outer loop
    vertex 601.9159369647919 38.750000000024365 15.21052637996107
    vertex 601.9159369647912 36.941142838293224 14.461273211176378
    vertex 601.91593696479 38.017319340423896 12.3407417368231
  endloop
endfacet
facet normal 1.0 -7.126225614650196e-14 -7.785384517401461e-13
  outer loop
    vertex 601.91593696479 40.42912888939778 13.339745961869417
    vertex 601.9159369647919 38.750000000024365 15.21052637996107
    vertex 601.91593696479 38.017319340423896 12.3407417368231
  endloop
endfacet
facet normal 1.0 -7.126225614650196e-14 -7.785384517401461e-13
  outer loop
    vertex 601.9159369647925 40.3033008589235 16.40241604944525
    vertex 601.9159369647919 38.750000000024365 15.21052637996107
    vertex 601.91593696479 40.42912888939778 13.339745961869417
  endloop
endfacet
facet normal 1.0 -7.126225614650196e-14 -7.785384517401461e-13
  outer loop
    vertex 601.9159369647941 41.49519052840578 17.955716908343803
    vertex 601.9159369647925 40.3033008589235 16.40241604944525
    vertex 601.91593696479 40.42912888939778 13.339745961869417
  endloop
endfacet
facet normal 1.0 -7.126225614650196e-14 -7.785384517401461e-13
  outer loop
    vertex 601.9159369647921 42.50019670126378 14.928932187848286
    vertex 601.9159369647941 41.49519052840578 17.955716908343803
    vertex 601.91593696479 40.42912888939778 13.339745961869417
  endloop
endfacet
facet normal 1.0 -7.126225614650196e-14 -7.785384517401461e-13
  outer loop
    vertex 601.9159369647954 42.24444369719007 19.764574070074868
    vertex 601.9159369647941 41.49519052840578 17.955716908343803
    vertex 601.9159369647921 42.50019670126378 14.928932187848286
  endloop
endfacet
facet normal 1.0 -7.126225614650196e-14 -7.785384517401461e-13
  outer loop
    vertex 601.9159369647977 42.50000000002206 21.70571690834374
    vertex 601.9159369647954 42.24444369719007 19.764574070074868
    vertex 601.9159369647921 42.50019670126378 14.928932187848286
  endloop
endfacet
facet normal 1.0 -7.126225614650196e-14 -7.785384517401461e-13
  outer loop
    vertex 601.915936964803 42.50019670126378 29.071067811579272
    vertex 601.9159369647977 42.50000000002206 21.70571690834374
    vertex 601.9159369647921 42.50019670126378 14.928932187848286
  endloop
endfacet
facet normal 1.0 -7.126225614650196e-14 -7.785384517401461e-13
  outer loop
    vertex 601.9159369648016 44.08938292724208 26.99999999971377
    vertex 601.915936964803 42.50019670126378 29.071067811579272
    vertex 601.9159369647921 42.50019670126378 14.928932187848286
  endloop
endfacet
facet normal 1.0 -7.126225614650196e-14 -7.785384517401461e-13
  outer loop
    vertex 601.9159369647938 44.08938292724208 16.999999999713786
    vertex 601.9159369648016 44.08938292724208 26.99999999971377
    vertex 601.9159369647921 42.50019670126378 14.928932187848286
  endloop
endfacet
facet normal 1.0 -7.126225614650196e-14 -7.785384517401461e-13
  outer loop
    vertex 601.9159369647992 45.08838715228876 24.588190450738985
    vertex 601.9159369648016 44.08938292724208 26.99999999971377
    vertex 601.9159369647938 44.08938292724208 16.999999999713786
  endloop
endfacet
facet normal 1.0 -7.126225614650196e-14 -7.785384517401461e-13
  outer loop
    vertex 601.9159369647952 45.08838715228876 19.411809548688574
    vertex 601.9159369647992 45.08838715228876 24.588190450738985
    vertex 601.9159369647938 44.08938292724208 16.999999999713786
  endloop
endfacet
facet normal 1.0 -7.126225614650196e-14 -7.785384517401461e-13
  outer loop
    vertex 601.9159369647975 45.429128889398086 21.99999999971378
    vertex 601.9159369647992 45.08838715228876 24.588190450738985
    vertex 601.9159369647952 45.08838715228876 19.411809548688574
  endloop
endfacet
facet normal 1.722510153484718e-13 0.9914448613738099 0.13052619222005635
  outer loop
    vertex 601.9159369647975 45.429128889398086 21.99999999971378
    vertex 48.915936964793985 45.42912888944449 22.000000000145448
    vertex 601.9159369647992 45.08838715228876 24.588190450738985
  endloop
endfacet
facet normal 1.722510153484718e-13 0.9914448613738099 0.13052619222005635
  outer loop
    vertex 48.91593696479525 45.088387152335166 24.588190451170654
    vertex 601.9159369647992 45.08838715228876 24.588190450738985
    vertex 48.915936964793985 45.42912888944449 22.000000000145448
  endloop
endfacet
facet normal -3.174348023675723e-14 0.9914448613738109 -0.1305261922200474
  outer loop
    vertex 601.9159369647952 45.08838715228876 19.411809548688574
    vertex 48.91593696479128 45.088387152335166 19.411809549120242
    vertex 601.9159369647975 45.429128889398086 21.99999999971378
  endloop
endfacet
facet normal -3.174348023675723e-14 0.9914448613738109 -0.1305261922200474
  outer loop
    vertex 48.915936964793985 45.42912888944449 22.000000000145448
    vertex 601.9159369647975 45.429128889398086 21.99999999971378
    vertex 48.91593696479128 45.088387152335166 19.411809549120242
  endloop
endfacet
facet normal -2.335747101024415e-13 0.9238795325112837 -0.3826834323650974
  outer loop
    vertex 601.9159369647938 44.08938292724208 16.999999999713786
    vertex 48.91593696478974 44.089382927289925 17.000000000145455
    vertex 601.9159369647952 45.08838715228876 19.411809548688574
  endloop
endfacet
facet normal -2.335747101024415e-13 0.9238795325112837 -0.3826834323650974
  outer loop
    vertex 48.91593696479128 45.088387152335166 19.411809549120242
    vertex 601.9159369647952 45.08838715228876 19.411809548688574
    vertex 48.91593696478974 44.089382927289925 17.000000000145455
  endloop
endfacet
facet normal -4.194882094750837e-13 0.7933533402912394 -0.6087614290087152
  outer loop
    vertex 601.9159369647921 42.50019670126378 14.928932187848286
    vertex 48.91593696478767 42.50019670131018 14.928932188279955
    vertex 601.9159369647938 44.08938292724208 16.999999999713786
  endloop
endfacet
facet normal -4.194882094750837e-13 0.7933533402912394 -0.6087614290087152
  outer loop
    vertex 48.91593696478974 44.089382927289925 17.000000000145455
    vertex 601.9159369647938 44.08938292724208 16.999999999713786
    vertex 48.91593696478767 42.50019670131018 14.928932188279955
  endloop
endfacet
facet normal -5.768142806090587e-13 0.6087614290087185 -0.7933533402912367
  outer loop
    vertex 601.9159369647921 42.50019670126378 14.928932187848286
    vertex 601.91593696479 40.42912888939778 13.339745961869417
    vertex 48.91593696478767 42.50019670131018 14.928932188279955
  endloop
endfacet
facet normal -5.768142806090587e-13 0.6087614290087185 -0.7933533402912367
  outer loop
    vertex 48.91593696478668 40.42912888944563 13.339745962301045
    vertex 48.91593696478767 42.50019670131018 14.928932188279955
    vertex 601.91593696479 40.42912888939778 13.339745961869417
  endloop
endfacet
facet normal -6.948314117501864e-13 0.38268343236509483 -0.9238795325112847
  outer loop
    vertex 601.91593696479 38.017319340423896 12.3407417368231
    vertex 48.915936964785864 38.0173193404703 12.340741737254726
    vertex 601.91593696479 40.42912888939778 13.339745961869417
  endloop
endfacet
facet normal -6.948314117501864e-13 0.38268343236509483 -0.9238795325112847
  outer loop
    vertex 48.91593696478668 40.42912888944563 13.339745962301045
    vertex 601.91593696479 40.42912888939778 13.339745961869417
    vertex 48.915936964785864 38.0173193404703 12.340741737254726
  endloop
endfacet
facet normal -7.65496930443743e-13 0.13052619222005635 -0.9914448613738099
  outer loop
    vertex 601.91593696479 38.017319340423896 12.3407417368231
    vertex 601.915936964789 35.429128889397475 11.99999999971377
    vertex 48.915936964785864 38.0173193404703 12.340741737254726
  endloop
endfacet
facet normal -7.65496930443743e-13 0.13052619222005635 -0.9914448613738099
  outer loop
    vertex 48.91593696478523 35.42912888944532 12.000000000145398
    vertex 48.915936964785864 38.0173193404703 12.340741737254726
    vertex 601.915936964789 35.429128889397475 11.99999999971377
  endloop
endfacet
facet normal -7.839950983710502e-13 -0.1305261922200559 -0.9914448613738099
  outer loop
    vertex 601.9159369647894 32.8409384383725 12.340741736823098
    vertex 48.915936964785686 32.840938438420345 12.340741737254726
    vertex 601.915936964789 35.429128889397475 11.99999999971377
  endloop
endfacet
facet normal -7.839950983710502e-13 -0.1305261922200559 -0.9914448613738099
  outer loop
    vertex 48.91593696478523 35.42912888944532 12.000000000145398
    vertex 601.915936964789 35.429128889397475 11.99999999971377
    vertex 48.915936964785686 32.840938438420345 12.340741737254726
  endloop
endfacet
facet normal -7.490652959575239e-13 -0.3826834323650974 -0.9238795325112837
  outer loop
    vertex 601.9159369647894 32.8409384383725 12.340741736823098
    vertex 601.9159369647895 30.429128889398612 13.339745961869417
    vertex 48.915936964785686 32.840938438420345 12.340741737254726
  endloop
endfacet
facet normal -7.490652959575239e-13 -0.3826834323650974 -0.9238795325112837
  outer loop
    vertex 48.91593696478578 30.429128889445018 13.339745962301041
    vertex 48.915936964785686 32.840938438420345 12.340741737254726
    vertex 601.9159369647895 30.429128889398612 13.339745961869417
  endloop
endfacet
facet normal -6.630879315134324e-13 -0.608761429008714 -0.7933533402912403
  outer loop
    vertex 601.9159369647911 28.35806107753261 14.928932187848302
    vertex 48.91593696478632 28.358061077579016 14.928932188279951
    vertex 601.9159369647895 30.429128889398612 13.339745961869417
  endloop
endfacet
facet normal -6.630879315134324e-13 -0.608761429008714 -0.7933533402912403
  outer loop
    vertex 48.91593696478578 30.429128889445018 13.339745962301041
    vertex 601.9159369647895 30.429128889398612 13.339745961869417
    vertex 48.91593696478632 28.358061077579016 14.928932188279951
  endloop
endfacet
facet normal -5.319222203413047e-13 -0.7933533402912392 -0.6087614290087157
  outer loop
    vertex 601.9159369647911 28.35806107753261 14.928932187848302
    vertex 601.9159369647929 26.768874851554312 16.999999999713804
    vertex 48.91593696478632 28.358061077579016 14.928932188279951
  endloop
endfacet
facet normal -5.319222203413047e-13 -0.7933533402912392 -0.6087614290087157
  outer loop
    vertex 48.915936964788486 26.768874851600717 17.00000000014543
    vertex 48.91593696478632 28.358061077579016 14.928932188279951
    vertex 601.9159369647929 26.768874851554312 16.999999999713804
  endloop
endfacet
facet normal -3.645068888959666e-13 -0.9238795325112835 -0.38268343236509783
  outer loop
    vertex 601.9159369647929 26.768874851554312 16.999999999713804
    vertex 601.9159369647938 25.769870626507632 19.411809548688524
    vertex 48.915936964788486 26.768874851600717 17.00000000014543
  endloop
endfacet
facet normal -3.645068888959666e-13 -0.9238795325112835 -0.38268343236509783
  outer loop
    vertex 48.91593696478974 25.769870626554038 19.411809549120218
    vertex 48.915936964788486 26.768874851600717 17.00000000014543
    vertex 601.9159369647938 25.769870626507632 19.411809548688524
  endloop
endfacet
facet normal -1.7225101534846528e-13 -0.9914448613738109 -0.13052619222004785
  outer loop
    vertex 601.9159369647938 25.769870626507632 19.411809548688524
    vertex 601.9159369647958 25.429128889398303 21.999999999713726
    vertex 48.91593696478974 25.769870626554038 19.411809549120218
  endloop
endfacet
facet normal -1.7225101534846528e-13 -0.9914448613738109 -0.13052619222004785
  outer loop
    vertex 48.915936964792 25.42912888944471 22.000000000145423
    vertex 48.91593696478974 25.769870626554038 19.411809549120218
    vertex 601.9159369647958 25.429128889398303 21.999999999713726
  endloop
endfacet
facet normal 3.174348023675723e-14 -0.9914448613738109 0.1305261922200474
  outer loop
    vertex 601.9159369647958 25.429128889398303 21.999999999713726
    vertex 601.9159369647979 25.769870626507632 24.58819045073893
    vertex 48.915936964792 25.42912888944471 22.000000000145423
  endloop
endfacet
facet normal 3.174348023675723e-14 -0.9914448613738109 0.1305261922200474
  outer loop
    vertex 48.915936964794255 25.769870626554038 24.58819045117063
    vertex 48.915936964792 25.42912888944471 22.000000000145423
    vertex 601.9159369647979 25.769870626507632 24.58819045073893
  endloop
endfacet
facet normal 2.335747101024415e-13 -0.9238795325112837 0.3826834323650974
  outer loop
    vertex 601.9159369647979 25.769870626507632 24.58819045073893
    vertex 601.9159369648004 26.768874851554312 26.99999999971372
    vertex 48.915936964794255 25.769870626554038 24.58819045117063
  endloop
endfacet
facet normal 2.335747101024415e-13 -0.9238795325112837 0.3826834323650974
  outer loop
    vertex 48.915936964795975 26.768874851600717 27.000000000145505
    vertex 48.915936964794255 25.769870626554038 24.58819045117063
    vertex 601.9159369648004 26.768874851554312 26.99999999971372
  endloop
endfacet
facet normal 4.194882094750794e-13 -0.7933533402912436 0.6087614290087099
  outer loop
    vertex 601.9159369648004 26.768874851554312 26.99999999971372
    vertex 601.9159369648016 28.35806107753261 29.07106781157922
    vertex 48.915936964795975 26.768874851600717 27.000000000145505
  endloop
endfacet
facet normal 4.194882094750794e-13 -0.7933533402912436 0.6087614290087099
  outer loop
    vertex 48.91593696479796 28.358061077579016 29.071067812011098
    vertex 48.915936964795975 26.768874851600717 27.000000000145505
    vertex 601.9159369648016 28.35806107753261 29.07106781157922
  endloop
endfacet
facet normal 5.768142806090616e-13 -0.6087614290087144 0.79335334029124
  outer loop
    vertex 601.915936964803 30.429128889398612 30.660254037558108
    vertex 48.91593696479967 30.429128889445018 30.660254037989986
    vertex 601.9159369648016 28.35806107753261 29.07106781157922
  endloop
endfacet
facet normal 5.768142806090616e-13 -0.6087614290087144 0.79335334029124
  outer loop
    vertex 48.91593696479796 28.358061077579016 29.071067812011098
    vertex 601.9159369648016 28.35806107753261 29.07106781157922
    vertex 48.91593696479967 30.429128889445018 30.660254037989986
  endloop
endfacet
facet normal 6.948314117501864e-13 -0.38268343236509483 0.9238795325112847
  outer loop
    vertex 601.9159369648044 32.8409384383725 31.6592582626045
    vertex 48.91593696480057 32.840938438420345 31.659258263036325
    vertex 601.915936964803 30.429128889398612 30.660254037558108
  endloop
endfacet
facet normal 6.948314117501864e-13 -0.38268343236509483 0.9238795325112847
  outer loop
    vertex 48.91593696479967 30.429128889445018 30.660254037989986
    vertex 601.915936964803 30.429128889398612 30.660254037558108
    vertex 48.91593696480057 32.840938438420345 31.659258263036325
  endloop
endfacet
facet normal 7.65496930443743e-13 -0.13052619222005635 0.9914448613738099
  outer loop
    vertex 601.9159369648044 32.8409384383725 31.6592582626045
    vertex 601.9159369648042 35.429128889397475 31.99999999971383
    vertex 48.91593696480057 32.840938438420345 31.659258263036325
  endloop
endfacet
facet normal 7.65496930443743e-13 -0.13052619222005635 0.9914448613738099
  outer loop
    vertex 48.91593696480103 35.42912888944532 32.000000000145654
    vertex 48.91593696480057 32.840938438420345 31.659258263036325
    vertex 601.9159369648042 35.429128889397475 31.99999999971383
  endloop
endfacet
facet normal 7.839950983710502e-13 0.1305261922200559 0.9914448613738099
  outer loop
    vertex 601.9159369648047 38.017319340423896 31.6592582626045
    vertex 48.91593696480076 38.0173193404703 31.659258263036325
    vertex 601.9159369648042 35.429128889397475 31.99999999971383
  endloop
endfacet
facet normal 7.839950983710502e-13 0.1305261922200559 0.9914448613738099
  outer loop
    vertex 48.91593696480103 35.42912888944532 32.000000000145654
    vertex 601.9159369648042 35.429128889397475 31.99999999971383
    vertex 48.91593696480076 38.0173193404703 31.659258263036325
  endloop
endfacet
facet normal 7.490652959575239e-13 0.3826834323650974 0.9238795325112837
  outer loop
    vertex 601.9159369648047 38.017319340423896 31.6592582626045
    vertex 601.9159369648036 40.42912888939778 30.660254037558182
    vertex 48.91593696480076 38.0173193404703 31.659258263036325
  endloop
endfacet
facet normal 7.490652959575239e-13 0.3826834323650974 0.9238795325112837
  outer loop
    vertex 48.91593696480057 40.42912888944563 30.660254037990008
    vertex 48.91593696480076 38.0173193404703 31.659258263036325
    vertex 601.9159369648036 40.42912888939778 30.660254037558182
  endloop
endfacet
facet normal 6.630879315134324e-13 0.608761429008714 0.7933533402912403
  outer loop
    vertex 601.9159369648036 40.42912888939778 30.660254037558182
    vertex 601.915936964803 42.50019670126378 29.071067811579272
    vertex 48.91593696480057 40.42912888944563 30.660254037990008
  endloop
endfacet
facet normal 6.630879315134324e-13 0.608761429008714 0.7933533402912403
  outer loop
    vertex 48.91593696479823 42.50019670131018 29.07106781201112
    vertex 48.91593696480057 40.42912888944563 30.660254037990008
    vertex 601.915936964803 42.50019670126378 29.071067811579272
  endloop
endfacet
facet normal 5.319222203413047e-13 0.7933533402912392 0.6087614290087157
  outer loop
    vertex 601.9159369648016 44.08938292724208 26.99999999971377
    vertex 48.91593696479742 44.089382927289925 27.000000000145505
    vertex 601.915936964803 42.50019670126378 29.071067811579272
  endloop
endfacet
facet normal 5.319222203413047e-13 0.7933533402912392 0.6087614290087157
  outer loop
    vertex 48.91593696479823 42.50019670131018 29.07106781201112
    vertex 601.915936964803 42.50019670126378 29.071067811579272
    vertex 48.91593696479742 44.089382927289925 27.000000000145505
  endloop
endfacet
facet normal 3.6450688889596094e-13 0.9238795325112865 0.38268343236509045
  outer loop
    vertex 601.9159369647992 45.08838715228876 24.588190450738985
    vertex 48.91593696479525 45.088387152335166 24.588190451170654
    vertex 601.9159369648016 44.08938292724208 26.99999999971377
  endloop
endfacet
facet normal 3.6450688889596094e-13 0.9238795325112865 0.38268343236509045
  outer loop
    vertex 48.91593696479742 44.089382927289925 27.000000000145505
    vertex 601.9159369648016 44.08938292724208 26.99999999971377
    vertex 48.91593696479525 45.088387152335166 24.588190451170654
  endloop
endfacet
facet normal -1.0 7.085998454670054e-14 7.803102627187611e-13
  outer loop
    vertex 6.1362470660242246e-12 27.50000000006091 21.70571690881369
    vertex 6.9483974129980196e-12 27.75555630289291 23.646859747082562
    vertex 4.0607517348689726e-12 27.75555630289291 19.76457407054482
  endloop
endfacet
facet normal -1.0 7.085998454670054e-14 7.803102627187611e-13
  outer loop
    vertex 1.9852564037137198e-12 28.504809471678637 17.955716908813802
    vertex 4.0607517348689726e-12 27.75555630289291 19.76457407054482
    vertex 6.9483974129980196e-12 27.75555630289291 23.646859747082562
  endloop
endfacet
facet normal -1.0 7.085998454670054e-14 7.803102627187611e-13
  outer loop
    vertex 7.399592050205682e-12 28.504809471678637 25.455716908813606
    vertex 1.9852564037137198e-12 28.504809471678637 17.955716908813802
    vertex 6.9483974129980196e-12 27.75555630289291 23.646859747082562
  endloop
endfacet
facet normal -1.0 7.085998454670054e-14 7.803102627187611e-13
  outer loop
    vertex 1.3535839116229909e-12 29.696699141162366 16.402416049914706
    vertex 1.9852564037137198e-12 28.504809471678637 17.955716908813802
    vertex 7.399592050205682e-12 28.504809471678637 25.455716908813606
  endloop
endfacet
facet normal -1.0 7.085998454670054e-14 7.803102627187611e-13
  outer loop
    vertex 9.655565236244e-12 29.69669914116236 27.0090177677127
    vertex 1.3535839116229909e-12 29.696699141162366 16.402416049914706
    vertex 7.399592050205682e-12 28.504809471678637 25.455716908813606
  endloop
endfacet
facet normal -1.0 7.085998454670054e-14 7.803102627187611e-13
  outer loop
    vertex 7.219114195322617e-13 31.2500000000615 15.210526380430508
    vertex 1.3535839116229909e-12 29.696699141162366 16.402416049914706
    vertex 9.655565236244e-12 29.69669914116236 27.0090177677127
  endloop
endfacet
facet normal -1.0 7.085998454670054e-14 7.803102627187611e-13
  outer loop
    vertex 9.745804163685534e-12 31.250000000061497 28.20090743719683
    vertex 7.219114195322617e-13 31.2500000000615 15.210526380430508
    vertex 9.655565236244e-12 29.69669914116236 27.0090177677127
  endloop
endfacet
facet normal -1.0 7.085998454670054e-14 7.803102627187611e-13
  outer loop
    vertex 2.7071678232459813e-13 33.05885716179264 14.461273211645816
    vertex 7.219114195322617e-13 31.2500000000615 15.210526380430508
    vertex 9.745804163685534e-12 31.250000000061497 28.20090743719683
  endloop
endfacet
facet normal -1.0 7.085998454670054e-14 7.803102627187611e-13
  outer loop
    vertex 1.1099388075308524e-11 33.05885716179263 28.95016060598157
    vertex 2.7071678232459813e-13 33.05885716179264 14.461273211645816
    vertex 9.745804163685534e-12 31.250000000061497 28.20090743719683
  endloop
endfacet
facet normal -1.0 7.085998454670054e-14 7.803102627187611e-13
  outer loop
    vertex 0.0 35.000000000062094 14.205716908813796
    vertex 2.7071678232459813e-13 33.05885716179264 14.461273211645816
    vertex 1.1099388075308524e-11 33.05885716179263 28.95016060598157
  endloop
endfacet
facet normal -1.0 7.085998454670054e-14 7.803102627187611e-13
  outer loop
    vertex 1.1550582712516188e-11 35.00000000006209 29.205716908813564
    vertex 0.0 35.000000000062094 14.205716908813796
    vertex 1.1099388075308524e-11 33.05885716179263 28.95016060598157
  endloop
endfacet
facet normal -1.0 7.085998454670054e-14 7.803102627187611e-13
  outer loop
    vertex 7.219114195322617e-13 36.94114283833011 14.461273211645793
    vertex 0.0 35.000000000062094 14.205716908813796
    vertex 1.1550582712516188e-11 35.00000000006209 29.205716908813564
  endloop
endfacet
facet normal -1.0 7.085998454670054e-14 7.803102627187611e-13
  outer loop
    vertex 1.0828671292983927e-11 36.9411428383301 28.950160605981544
    vertex 7.219114195322617e-13 36.94114283833011 14.461273211645793
    vertex 1.1550582712516188e-11 35.00000000006209 29.205716908813564
  endloop
endfacet
facet normal -1.0 7.085998454670054e-14 7.803102627187611e-13
  outer loop
    vertex 2.7071678232459813e-13 38.75000000006124 15.210526380430464
    vertex 7.219114195322617e-13 36.94114283833011 14.461273211645793
    vertex 1.0828671292983927e-11 36.9411428383301 28.950160605981544
  endloop
endfacet
facet normal -1.0 7.085998454670054e-14 7.803102627187611e-13
  outer loop
    vertex 9.29460952647787e-12 38.750000000061235 28.20090743719683
    vertex 2.7071678232459813e-13 38.75000000006124 15.210526380430464
    vertex 1.0828671292983927e-11 36.9411428383301 28.950160605981544
  endloop
endfacet
facet normal -1.0 7.085998454670054e-14 7.803102627187611e-13
  outer loop
    vertex 2.526689968362916e-12 40.30330085896038 16.402416049914642
    vertex 2.7071678232459813e-13 38.75000000006124 15.210526380430464
    vertex 9.29460952647787e-12 38.750000000061235 28.20090743719683
  endloop
endfacet
facet normal -1.0 7.085998454670054e-14 7.803102627187611e-13
  outer loop
    vertex 1.0828671292983927e-11 40.30330085896037 27.009017767712677
    vertex 2.526689968362916e-12 40.30330085896038 16.402416049914642
    vertex 9.29460952647787e-12 38.750000000061235 28.20090743719683
  endloop
endfacet
facet normal -1.0 7.085998454670054e-14 7.803102627187611e-13
  outer loop
    vertex 3.519318170219776e-12 41.495190528444105 17.955716908813734
    vertex 2.526689968362916e-12 40.30330085896038 16.402416049914642
    vertex 1.0828671292983927e-11 40.30330085896037 27.009017767712677
  endloop
endfacet
facet normal -1.0 7.085998454670054e-14 7.803102627187611e-13
  outer loop
    vertex 8.93365381671174e-12 41.4951905284441 25.455716908813585
    vertex 3.519318170219776e-12 41.495190528444105 17.955716908813734
    vertex 1.0828671292983927e-11 40.30330085896037 27.009017767712677
  endloop
endfacet
facet normal -1.0 7.085998454670054e-14 7.803102627187611e-13
  outer loop
    vertex 4.6924242269597015e-12 42.24444369722983 19.764574070544825
    vertex 3.519318170219776e-12 41.495190528444105 17.955716908813734
    vertex 8.93365381671174e-12 41.4951905284441 25.455716908813585
  endloop
endfacet
facet normal -1.0 7.085998454670054e-14 7.803102627187611e-13
  outer loop
    vertex 7.580069905088748e-12 42.244443697229826 23.646859747082566
    vertex 4.6924242269597015e-12 42.24444369722983 19.764574070544825
    vertex 8.93365381671174e-12 41.4951905284441 25.455716908813585
  endloop
endfacet
facet normal -1.0 7.085998454670054e-14 7.803102627187611e-13
  outer loop
    vertex 6.767919558114954e-12 42.500000000061824 21.705716908813695
    vertex 4.6924242269597015e-12 42.24444369722983 19.764574070544825
    vertex 7.580069905088748e-12 42.244443697229826 23.646859747082566
  endloop
endfacet
facet normal -1.0 7.085998454670044e-14 7.814312672253484e-13
  outer loop
    vertex 48.915936964792 25.42912888944471 22.000000000145423
    vertex 48.915936964794255 25.769870626554038 24.58819045117063
    vertex 48.91593696478974 25.769870626554038 19.411809549120218
  endloop
endfacet
facet normal -1.0 7.085998454670044e-14 7.814312672253484e-13
  outer loop
    vertex 48.915936964788486 26.768874851600717 17.00000000014543
    vertex 48.91593696478974 25.769870626554038 19.411809549120218
    vertex 48.915936964794255 25.769870626554038 24.58819045117063
  endloop
endfacet
facet normal -1.0 7.085998454670044e-14 7.814312672253484e-13
  outer loop
    vertex 48.915936964795975 26.768874851600717 27.000000000145505
    vertex 48.915936964788486 26.768874851600717 17.00000000014543
    vertex 48.915936964794255 25.769870626554038 24.58819045117063
  endloop
endfacet
facet normal -1.0 7.085998454670044e-14 7.814312672253484e-13
  outer loop
    vertex 48.91593696478632 28.358061077579016 14.928932188279951
    vertex 48.915936964788486 26.768874851600717 17.00000000014543
    vertex 48.915936964795975 26.768874851600717 27.000000000145505
  endloop
endfacet
facet normal -1.0 7.085998454670044e-14 7.814312672253484e-13
  outer loop
    vertex 48.91593696479281 27.500000000068994 21.705716908775383
    vertex 48.91593696478632 28.358061077579016 14.928932188279951
    vertex 48.915936964795975 26.768874851600717 27.000000000145505
  endloop
endfacet
facet normal -1.0 7.085998454670044e-14 7.814312672253484e-13
  outer loop
    vertex 48.91593696479146 27.75555630290099 19.764574070506512
    vertex 48.91593696478632 28.358061077579016 14.928932188279951
    vertex 48.91593696479281 27.500000000068994 21.705716908775383
  endloop
endfacet
facet normal -1.0 7.085998454670044e-14 7.814312672253484e-13
  outer loop
    vertex 48.915936964788486 28.50480947168672 17.955716908775447
    vertex 48.91593696478632 28.358061077579016 14.928932188279951
    vertex 48.91593696479146 27.75555630290099 19.764574070506512
  endloop
endfacet
facet normal -1.0 7.085998454670044e-14 7.814312672253484e-13
  outer loop
    vertex 48.91593696478578 30.429128889445018 13.339745962301041
    vertex 48.91593696478632 28.358061077579016 14.928932188279951
    vertex 48.915936964788486 28.50480947168672 17.955716908775447
  endloop
endfacet
facet normal -1.0 7.085998454670044e-14 7.814312672253484e-13
  outer loop
    vertex 48.91593696478803 29.69669914117045 16.402416049876354
    vertex 48.91593696478578 30.429128889445018 13.339745962301041
    vertex 48.915936964788486 28.50480947168672 17.955716908775447
  endloop
endfacet
facet normal -1.0 7.085998454670044e-14 7.814312672253484e-13
  outer loop
    vertex 48.91593696478758 31.250000000069583 15.21052638039218
    vertex 48.91593696478578 30.429128889445018 13.339745962301041
    vertex 48.91593696478803 29.69669914117045 16.402416049876354
  endloop
endfacet
facet normal -1.0 7.085998454670044e-14 7.814312672253484e-13
  outer loop
    vertex 48.915936964785686 32.840938438420345 12.340741737254726
    vertex 48.91593696478578 30.429128889445018 13.339745962301041
    vertex 48.91593696478758 31.250000000069583 15.21052638039218
  endloop
endfacet
facet normal -1.0 7.085998454670044e-14 7.814312672253484e-13
  outer loop
    vertex 48.91593696478767 33.05885716180072 14.461273211607464
    vertex 48.915936964785686 32.840938438420345 12.340741737254726
    vertex 48.91593696478758 31.250000000069583 15.21052638039218
  endloop
endfacet
facet normal -1.0 7.085998454670044e-14 7.814312672253484e-13
  outer loop
    vertex 48.91593696478523 35.42912888944532 12.000000000145398
    vertex 48.915936964785686 32.840938438420345 12.340741737254726
    vertex 48.91593696478767 33.05885716180072 14.461273211607464
  endloop
endfacet
facet normal -1.0 7.085998454670044e-14 7.814312672253484e-13
  outer loop
    vertex 48.91593696478686 35.00000000006873 14.205716908775466
    vertex 48.91593696478523 35.42912888944532 12.000000000145398
    vertex 48.91593696478767 33.05885716180072 14.461273211607464
  endloop
endfacet
facet normal -1.0 7.085998454670044e-14 7.814312672253484e-13
  outer loop
    vertex 48.91593696478776 36.94114283833819 14.461273211607464
    vertex 48.91593696478523 35.42912888944532 12.000000000145398
    vertex 48.91593696478686 35.00000000006873 14.205716908775466
  endloop
endfacet
facet normal -1.0 7.085998454670044e-14 7.814312672253484e-13
  outer loop
    vertex 48.915936964785864 38.0173193404703 12.340741737254726
    vertex 48.91593696478523 35.42912888944532 12.000000000145398
    vertex 48.91593696478776 36.94114283833819 14.461273211607464
  endloop
endfacet
facet normal -1.0 7.085998454670044e-14 7.814312672253484e-13
  outer loop
    vertex 48.91593696478767 38.75000000006932 15.210526380392157
    vertex 48.915936964785864 38.0173193404703 12.340741737254726
    vertex 48.91593696478776 36.94114283833819 14.461273211607464
  endloop
endfacet
facet normal -1.0 7.085998454670044e-14 7.814312672253484e-13
  outer loop
    vertex 48.91593696478668 40.42912888944563 13.339745962301045
    vertex 48.915936964785864 38.0173193404703 12.340741737254726
    vertex 48.91593696478767 38.75000000006932 15.210526380392157
  endloop
endfacet
facet normal -1.0 7.085998454670044e-14 7.814312672253484e-13
  outer loop
    vertex 48.91593696478884 40.30330085896846 16.402416049876354
    vertex 48.91593696478668 40.42912888944563 13.339745962301045
    vertex 48.91593696478767 38.75000000006932 15.210526380392157
  endloop
endfacet
facet normal -1.0 7.085998454670044e-14 7.814312672253484e-13
  outer loop
    vertex 48.9159369647902 41.495190528452184 17.95571690877545
    vertex 48.91593696478668 40.42912888944563 13.339745962301045
    vertex 48.91593696478884 40.30330085896846 16.402416049876354
  endloop
endfacet
facet normal -1.0 7.085998454670044e-14 7.814312672253484e-13
  outer loop
    vertex 48.91593696478767 42.50019670131018 14.928932188279955
    vertex 48.91593696478668 40.42912888944563 13.339745962301045
    vertex 48.9159369647902 41.495190528452184 17.95571690877545
  endloop
endfacet
facet normal -1.0 7.085998454670044e-14 7.814312672253484e-13
  outer loop
    vertex 48.91593696479191 42.24444369723792 19.764574070506537
    vertex 48.91593696478767 42.50019670131018 14.928932188279955
    vertex 48.9159369647902 41.495190528452184 17.95571690877545
  endloop
endfacet
facet normal -1.0 7.085998454670044e-14 7.814312672253484e-13
  outer loop
    vertex 48.915936964793445 42.50000000006991 21.705716908775408
    vertex 48.91593696478767 42.50019670131018 14.928932188279955
    vertex 48.91593696479191 42.24444369723792 19.764574070506537
  endloop
endfacet
facet normal -1.0 7.085998454670044e-14 7.814312672253484e-13
  outer loop
    vertex 48.915936964795975 26.768874851600717 27.000000000145505
    vertex 48.91593696479796 28.358061077579016 29.071067812011098
    vertex 48.91593696479281 27.500000000068994 21.705716908775383
  endloop
endfacet
facet normal -1.0 7.085998454670044e-14 7.814312672253484e-13
  outer loop
    vertex 48.91593696479435 27.75555630290099 23.646859747044253
    vertex 48.91593696479281 27.500000000068994 21.705716908775383
    vertex 48.91593696479796 28.358061077579016 29.071067812011098
  endloop
endfacet
facet normal -1.0 7.085998454670044e-14 7.814312672253484e-13
  outer loop
    vertex 48.91593696479462 28.50480947168672 25.455716908775436
    vertex 48.91593696479435 27.75555630290099 23.646859747044253
    vertex 48.91593696479796 28.358061077579016 29.071067812011098
  endloop
endfacet
facet normal -1.0 7.085998454670044e-14 7.814312672253484e-13
  outer loop
    vertex 48.91593696479967 30.429128889445018 30.660254037989986
    vertex 48.91593696479462 28.50480947168672 25.455716908775436
    vertex 48.91593696479796 28.358061077579016 29.071067812011098
  endloop
endfacet
facet normal -1.0 7.085998454670044e-14 7.814312672253484e-13
  outer loop
    vertex 48.91593696479634 29.69669914117045 27.00901776767453
    vertex 48.91593696479462 28.50480947168672 25.455716908775436
    vertex 48.91593696479967 30.429128889445018 30.660254037989986
  endloop
endfacet
facet normal -1.0 7.085998454670044e-14 7.814312672253484e-13
  outer loop
    vertex 48.91593696479751 31.250000000069583 28.200907437158794
    vertex 48.91593696479634 29.69669914117045 27.00901776767453
    vertex 48.91593696479967 30.429128889445018 30.660254037989986
  endloop
endfacet
facet normal -1.0 7.085998454670044e-14 7.814312672253484e-13
  outer loop
    vertex 48.91593696480057 32.840938438420345 31.659258263036325
    vertex 48.91593696479751 31.250000000069583 28.200907437158794
    vertex 48.91593696479967 30.429128889445018 30.660254037989986
  endloop
endfacet
facet normal -1.0 7.085998454670044e-14 7.814312672253484e-13
  outer loop
    vertex 48.91593696479886 33.05885716180072 28.95016060594351
    vertex 48.91593696479751 31.250000000069583 28.200907437158794
    vertex 48.91593696480057 32.840938438420345 31.659258263036325
  endloop
endfacet
facet normal -1.0 7.085998454670044e-14 7.814312672253484e-13
  outer loop
    vertex 48.91593696480103 35.42912888944532 32.000000000145654
    vertex 48.91593696479886 33.05885716180072 28.95016060594351
    vertex 48.91593696480057 32.840938438420345 31.659258263036325
  endloop
endfacet
facet normal -1.0 7.085998454670044e-14 7.814312672253484e-13
  outer loop
    vertex 48.91593696479913 35.00000000006873 29.205716908775507
    vertex 48.91593696479886 33.05885716180072 28.95016060594351
    vertex 48.91593696480103 35.42912888944532 32.000000000145654
  endloop
endfacet
facet normal -1.0 7.085998454670044e-14 7.814312672253484e-13
  outer loop
    vertex 48.91593696479913 36.94114283833819 28.95016060594351
    vertex 48.91593696479913 35.00000000006873 29.205716908775507
    vertex 48.91593696480103 35.42912888944532 32.000000000145654
  endloop
endfacet
facet normal -1.0 7.085998454670044e-14 7.814312672253484e-13
  outer loop
    vertex 48.91593696480076 38.0173193404703 31.659258263036325
    vertex 48.91593696479913 36.94114283833819 28.95016060594351
    vertex 48.91593696480103 35.42912888944532 32.000000000145654
  endloop
endfacet
facet normal -1.0 7.085998454670044e-14 7.814312672253484e-13
  outer loop
    vertex 48.91593696479742 38.75000000006932 28.20090743715882
    vertex 48.91593696479913 36.94114283833819 28.95016060594351
    vertex 48.91593696480076 38.0173193404703 31.659258263036325
  endloop
endfacet
facet normal -1.0 7.085998454670044e-14 7.814312672253484e-13
  outer loop
    vertex 48.91593696480057 40.42912888944563 30.660254037990008
    vertex 48.91593696479742 38.75000000006932 28.20090743715882
    vertex 48.91593696480076 38.0173193404703 31.659258263036325
  endloop
endfacet
facet normal -1.0 7.085998454670044e-14 7.814312672253484e-13
  outer loop
    vertex 48.91593696479751 40.30330085896846 27.00901776767453
    vertex 48.91593696479742 38.75000000006932 28.20090743715882
    vertex 48.91593696480057 40.42912888944563 30.660254037990008
  endloop
endfacet
facet normal -1.0 7.085998454670044e-14 7.814312672253484e-13
  outer loop
    vertex 48.91593696479634 41.495190528452184 25.455716908775436
    vertex 48.91593696479751 40.30330085896846 27.00901776767453
    vertex 48.91593696480057 40.42912888944563 30.660254037990008
  endloop
endfacet
facet normal -1.0 7.085998454670044e-14 7.814312672253484e-13
  outer loop
    vertex 48.91593696479823 42.50019670131018 29.07106781201112
    vertex 48.91593696479634 41.495190528452184 25.455716908775436
    vertex 48.91593696480057 40.42912888944563 30.660254037990008
  endloop
endfacet
facet normal -1.0 7.085998454670044e-14 7.814312672253484e-13
  outer loop
    vertex 48.91593696479498 42.24444369723792 23.646859747044278
    vertex 48.91593696479634 41.495190528452184 25.455716908775436
    vertex 48.91593696479823 42.50019670131018 29.07106781201112
  endloop
endfacet
facet normal -1.0 7.085998454670044e-14 7.814312672253484e-13
  outer loop
    vertex 48.915936964793445 42.50000000006991 21.705716908775408
    vertex 48.91593696479498 42.24444369723792 23.646859747044278
    vertex 48.91593696479823 42.50019670131018 29.07106781201112
  endloop
endfacet
facet normal -1.0 7.085998454670044e-14 7.814312672253484e-13
  outer loop
    vertex 48.91593696478767 42.50019670131018 14.928932188279955
    vertex 48.915936964793445 42.50000000006991 21.705716908775408
    vertex 48.91593696479823 42.50019670131018 29.07106781201112
  endloop
endfacet
facet normal -1.0 7.085998454670044e-14 7.814312672253484e-13
  outer loop
    vertex 48.91593696478974 44.089382927289925 17.000000000145455
    vertex 48.91593696478767 42.50019670131018 14.928932188279955
    vertex 48.91593696479823 42.50019670131018 29.07106781201112
  endloop
endfacet
facet normal -1.0 7.085998454670044e-14 7.814312672253484e-13
  outer loop
    vertex 48.91593696479742 44.089382927289925 27.000000000145505
    vertex 48.91593696478974 44.089382927289925 17.000000000145455
    vertex 48.91593696479823 42.50019670131018 29.07106781201112
  endloop
endfacet
facet normal -1.0 7.085998454670044e-14 7.814312672253484e-13
  outer loop
    vertex 48.91593696479128 45.088387152335166 19.411809549120242
    vertex 48.91593696478974 44.089382927289925 17.000000000145455
    vertex 48.91593696479742 44.089382927289925 27.000000000145505
  endloop
endfacet
facet normal -1.0 7.085998454670044e-14 7.814312672253484e-13
  outer loop
    vertex 48.91593696479525 45.088387152335166 24.588190451170654
    vertex 48.91593696479128 45.088387152335166 19.411809549120242
    vertex 48.91593696479742 44.089382927289925 27.000000000145505
  endloop
endfacet
facet normal -1.0 7.085998454670044e-14 7.814312672253484e-13
  outer loop
    vertex 48.915936964793985 45.42912888944449 22.000000000145448
    vertex 48.91593696479128 45.088387152335166 19.411809549120242
    vertex 48.91593696479525 45.088387152335166 24.588190451170654
  endloop
endfacet
facet normal -7.850153206467965e-13 -0.13052619222005665 -0.9914448613738098
  outer loop
    vertex 48.91593696478767 33.05885716180072 14.461273211607464
    vertex 2.7071678232459813e-13 33.05885716179264 14.461273211645816
    vertex 48.91593696478686 35.00000000006873 14.205716908775466
  endloop
endfacet
facet normal -7.850153206467965e-13 -0.13052619222005665 -0.9914448613738098
  outer loop
    vertex 0.0 35.000000000062094 14.205716908813796
    vertex 48.91593696478686 35.00000000006873 14.205716908775466
    vertex 2.7071678232459813e-13 33.05885716179264 14.461273211645816
  endloop
endfacet
facet normal -7.500160575174981e-13 -0.3826834323650818 -0.9238795325112901
  outer loop
    vertex 48.91593696478767 33.05885716180072 14.461273211607464
    vertex 48.91593696478758 31.250000000069583 15.21052638039218
    vertex 2.7071678232459813e-13 33.05885716179264 14.461273211645816
  endloop
endfacet
facet normal -7.500160575174981e-13 -0.3826834323650818 -0.9238795325112901
  outer loop
    vertex 7.219114195322617e-13 31.2500000000615 15.210526380430508
    vertex 2.7071678232459813e-13 33.05885716179264 14.461273211645816
    vertex 48.91593696478758 31.250000000069583 15.21052638039218
  endloop
endfacet
facet normal -6.639040346953743e-13 -0.6087614290087218 -0.7933533402912345
  outer loop
    vertex 48.91593696478803 29.69669914117045 16.402416049876354
    vertex 1.3535839116229909e-12 29.696699141162366 16.402416049914706
    vertex 48.91593696478758 31.250000000069583 15.21052638039218
  endloop
endfacet
facet normal -6.639040346953743e-13 -0.6087614290087218 -0.7933533402912345
  outer loop
    vertex 7.219114195322617e-13 31.2500000000615 15.210526380430508
    vertex 48.91593696478758 31.250000000069583 15.21052638039218
    vertex 1.3535839116229909e-12 29.696699141162366 16.402416049914706
  endloop
endfacet
facet normal -5.32548851336097e-13 -0.793353340291234 -0.6087614290087221
  outer loop
    vertex 48.91593696478803 29.69669914117045 16.402416049876354
    vertex 48.915936964788486 28.50480947168672 17.955716908775447
    vertex 1.3535839116229909e-12 29.696699141162366 16.402416049914706
  endloop
endfacet
facet normal -5.32548851336097e-13 -0.793353340291234 -0.6087614290087221
  outer loop
    vertex 1.9852564037137198e-12 28.504809471678637 17.955716908813802
    vertex 1.3535839116229909e-12 29.696699141162366 16.402416049914706
    vertex 48.915936964788486 28.50480947168672 17.955716908775447
  endloop
endfacet
facet normal -3.649008086604747e-13 -0.9238795325112875 -0.382683432365088
  outer loop
    vertex 48.915936964788486 28.50480947168672 17.955716908775447
    vertex 48.91593696479146 27.75555630290099 19.764574070506512
    vertex 1.9852564037137198e-12 28.504809471678637 17.955716908813802
  endloop
endfacet
facet normal -3.649008086604747e-13 -0.9238795325112875 -0.382683432365088
  outer loop
    vertex 4.0607517348689726e-12 27.75555630289291 19.76457407054482
    vertex 1.9852564037137198e-12 28.504809471678637 17.955716908813802
    vertex 48.91593696479146 27.75555630290099 19.764574070506512
  endloop
endfacet
facet normal -1.7238534376821908e-13 -0.9914448613738109 -0.13052619222004724
  outer loop
    vertex 48.91593696479146 27.75555630290099 19.764574070506512
    vertex 48.91593696479281 27.500000000068994 21.705716908775383
    vertex 4.0607517348689726e-12 27.75555630289291 19.76457407054482
  endloop
endfacet
facet normal -1.7238534376821908e-13 -0.9914448613738109 -0.13052619222004724
  outer loop
    vertex 6.1362470660242246e-12 27.50000000006091 21.70571690881369
    vertex 4.0607517348689726e-12 27.75555630289291 19.76457407054482
    vertex 48.91593696479281 27.500000000068994 21.705716908775383
  endloop
endfacet
facet normal 3.187780865651143e-14 -0.9914448613738112 0.13052619222004683
  outer loop
    vertex 48.91593696479281 27.500000000068994 21.705716908775383
    vertex 48.91593696479435 27.75555630290099 23.646859747044253
    vertex 6.1362470660242246e-12 27.50000000006091 21.70571690881369
  endloop
endfacet
facet normal 3.187780865651143e-14 -0.9914448613738112 0.13052619222004683
  outer loop
    vertex 6.9483974129980196e-12 27.75555630289291 23.646859747082562
    vertex 6.1362470660242246e-12 27.50000000006091 21.70571690881369
    vertex 48.91593696479435 27.75555630290099 23.646859747044253
  endloop
endfacet
facet normal 2.339684539243022e-13 -0.9238795325112836 0.38268343236509733
  outer loop
    vertex 48.91593696479435 27.75555630290099 23.646859747044253
    vertex 48.91593696479462 28.50480947168672 25.455716908775436
    vertex 6.9483974129980196e-12 27.75555630289291 23.646859747082562
  endloop
endfacet
facet normal 2.339684539243022e-13 -0.9238795325112836 0.38268343236509733
  outer loop
    vertex 7.399592050205682e-12 28.504809471678637 25.455716908813606
    vertex 6.9483974129980196e-12 27.75555630289291 23.646859747082562
    vertex 48.91593696479462 28.50480947168672 25.455716908775436
  endloop
endfacet
facet normal 4.201147634962027e-13 -0.7933533402912398 0.6087614290087145
  outer loop
    vertex 48.91593696479462 28.50480947168672 25.455716908775436
    vertex 48.91593696479634 29.69669914117045 27.00901776767453
    vertex 7.399592050205682e-12 28.504809471678637 25.455716908813606
  endloop
endfacet
facet normal 4.201147634962027e-13 -0.7933533402912398 0.6087614290087145
  outer loop
    vertex 9.655565236244e-12 29.69669914116236 27.0090177677127
    vertex 7.399592050205682e-12 28.504809471678637 25.455716908813606
    vertex 48.91593696479634 29.69669914117045 27.00901776767453
  endloop
endfacet
facet normal 5.776305198663847e-13 -0.608761429008722 0.793353340291234
  outer loop
    vertex 48.91593696479751 31.250000000069583 28.200907437158794
    vertex 9.745804163685534e-12 31.250000000061497 28.20090743719683
    vertex 48.91593696479634 29.69669914117045 27.00901776767453
  endloop
endfacet
facet normal 5.776305198663847e-13 -0.608761429008722 0.793353340291234
  outer loop
    vertex 9.655565236244e-12 29.69669914116236 27.0090177677127
    vertex 48.91593696479634 29.69669914117045 27.00901776767453
    vertex 9.745804163685534e-12 31.250000000061497 28.20090743719683
  endloop
endfacet
facet normal 6.957821312957377e-13 -0.38268343236508223 0.9238795325112898
  outer loop
    vertex 48.91593696479886 33.05885716180072 28.95016060594351
    vertex 1.1099388075308524e-11 33.05885716179263 28.95016060598157
    vertex 48.91593696479751 31.250000000069583 28.200907437158794
  endloop
endfacet
facet normal 6.957821312957377e-13 -0.38268343236508223 0.9238795325112898
  outer loop
    vertex 9.745804163685534e-12 31.250000000061497 28.20090743719683
    vertex 48.91593696479751 31.250000000069583 28.200907437158794
    vertex 1.1099388075308524e-11 33.05885716179263 28.95016060598157
  endloop
endfacet
facet normal 7.665171748323755e-13 -0.13052619222005712 0.9914448613738098
  outer loop
    vertex 48.91593696479886 33.05885716180072 28.95016060594351
    vertex 48.91593696479913 35.00000000006873 29.205716908775507
    vertex 1.1099388075308524e-11 33.05885716179263 28.95016060598157
  endloop
endfacet
facet normal 7.665171748323755e-13 -0.13052619222005712 0.9914448613738098
  outer loop
    vertex 1.1550582712516188e-11 35.00000000006209 29.205716908813564
    vertex 1.1099388075308524e-11 33.05885716179263 28.95016060598157
    vertex 48.91593696479913 35.00000000006873 29.205716908775507
  endloop
endfacet
facet normal 7.850153427596813e-13 0.13052619222005668 0.9914448613738098
  outer loop
    vertex 48.91593696479913 35.00000000006873 29.205716908775507
    vertex 48.91593696479913 36.94114283833819 28.95016060594351
    vertex 1.1550582712516188e-11 35.00000000006209 29.205716908813564
  endloop
endfacet
facet normal 7.850153427596813e-13 0.13052619222005668 0.9914448613738098
  outer loop
    vertex 1.0828671292983927e-11 36.9411428383301 28.950160605981544
    vertex 1.1550582712516188e-11 35.00000000006209 29.205716908813564
    vertex 48.91593696479913 36.94114283833819 28.95016060594351
  endloop
endfacet
facet normal 7.500160155030739e-13 0.3826834323650818 0.9238795325112901
  outer loop
    vertex 48.91593696479913 36.94114283833819 28.95016060594351
    vertex 48.91593696479742 38.75000000006932 28.20090743715882
    vertex 1.0828671292983927e-11 36.9411428383301 28.950160605981544
  endloop
endfacet
facet normal 7.500160155030739e-13 0.3826834323650818 0.9238795325112901
  outer loop
    vertex 9.29460952647787e-12 38.750000000061235 28.20090743719683
    vertex 1.0828671292983927e-11 36.9411428383301 28.950160605981544
    vertex 48.91593696479742 38.75000000006932 28.20090743715882
  endloop
endfacet
facet normal 6.639041707707548e-13 0.6087614290087217 0.7933533402912345
  outer loop
    vertex 48.91593696479751 40.30330085896846 27.00901776767453
    vertex 1.0828671292983927e-11 40.30330085896037 27.009017767712677
    vertex 48.91593696479742 38.75000000006932 28.20090743715882
  endloop
endfacet
facet normal 6.639041707707548e-13 0.6087614290087217 0.7933533402912345
  outer loop
    vertex 9.29460952647787e-12 38.750000000061235 28.20090743719683
    vertex 48.91593696479742 38.75000000006932 28.20090743715882
    vertex 1.0828671292983927e-11 40.30330085896037 27.009017767712677
  endloop
endfacet
facet normal 5.325487743624281e-13 0.793353340291234 0.608761429008722
  outer loop
    vertex 48.91593696479634 41.495190528452184 25.455716908775436
    vertex 8.93365381671174e-12 41.4951905284441 25.455716908813585
    vertex 48.91593696479751 40.30330085896846 27.00901776767453
  endloop
endfacet
facet normal 5.325487743624281e-13 0.793353340291234 0.608761429008722
  outer loop
    vertex 1.0828671292983927e-11 40.30330085896037 27.009017767712677
    vertex 48.91593696479751 40.30330085896846 27.00901776767453
    vertex 8.93365381671174e-12 41.4951905284441 25.455716908813585
  endloop
endfacet
facet normal 3.6490063271781983e-13 0.9238795325112875 0.38268343236508795
  outer loop
    vertex 48.91593696479498 42.24444369723792 23.646859747044278
    vertex 7.580069905088748e-12 42.244443697229826 23.646859747082566
    vertex 48.91593696479634 41.495190528452184 25.455716908775436
  endloop
endfacet
facet normal 3.6490063271781983e-13 0.9238795325112875 0.38268343236508795
  outer loop
    vertex 8.93365381671174e-12 41.4951905284441 25.455716908813585
    vertex 48.91593696479634 41.495190528452184 25.455716908775436
    vertex 7.580069905088748e-12 42.244443697229826 23.646859747082566
  endloop
endfacet
facet normal 1.7238534376821908e-13 0.9914448613738109 0.13052619222004724
  outer loop
    vertex 48.915936964793445 42.50000000006991 21.705716908775408
    vertex 6.767919558114954e-12 42.500000000061824 21.705716908813695
    vertex 48.91593696479498 42.24444369723792 23.646859747044278
  endloop
endfacet
facet normal 1.7238534376821908e-13 0.9914448613738109 0.13052619222004724
  outer loop
    vertex 7.580069905088748e-12 42.244443697229826 23.646859747082566
    vertex 48.91593696479498 42.24444369723792 23.646859747044278
    vertex 6.767919558114954e-12 42.500000000061824 21.705716908813695
  endloop
endfacet
facet normal -3.18778086565203e-14 0.9914448613738096 -0.13052619222005815
  outer loop
    vertex 48.91593696479191 42.24444369723792 19.764574070506537
    vertex 4.6924242269597015e-12 42.24444369722983 19.764574070544825
    vertex 48.915936964793445 42.50000000006991 21.705716908775408
  endloop
endfacet
facet normal -3.18778086565203e-14 0.9914448613738096 -0.13052619222005815
  outer loop
    vertex 6.767919558114954e-12 42.500000000061824 21.705716908813695
    vertex 48.915936964793445 42.50000000006991 21.705716908775408
    vertex 4.6924242269597015e-12 42.24444369722983 19.764574070544825
  endloop
endfacet
facet normal -2.3396862986694895e-13 0.9238795325112877 -0.3826834323650875
  outer loop
    vertex 48.9159369647902 41.495190528452184 17.95571690877545
    vertex 3.519318170219776e-12 41.495190528444105 17.955716908813734
    vertex 48.91593696479191 42.24444369723792 19.764574070506537
  endloop
endfacet
facet normal -2.3396862986694895e-13 0.9238795325112877 -0.3826834323650875
  outer loop
    vertex 4.6924242269597015e-12 42.24444369722983 19.764574070544825
    vertex 48.91593696479191 42.24444369723792 19.764574070506537
    vertex 3.519318170219776e-12 41.495190528444105 17.955716908813734
  endloop
endfacet
facet normal -4.2011484046987055e-13 0.7933533402912398 -0.6087614290087145
  outer loop
    vertex 48.91593696478884 40.30330085896846 16.402416049876354
    vertex 2.526689968362916e-12 40.30330085896038 16.402416049914642
    vertex 48.9159369647902 41.495190528452184 17.95571690877545
  endloop
endfacet
facet normal -4.2011484046987055e-13 0.7933533402912398 -0.6087614290087145
  outer loop
    vertex 3.519318170219776e-12 41.495190528444105 17.955716908813734
    vertex 48.9159369647902 41.495190528452184 17.95571690877545
    vertex 2.526689968362916e-12 40.30330085896038 16.402416049914642
  endloop
endfacet
facet normal -5.776303837910036e-13 0.6087614290087221 -0.793353340291234
  outer loop
    vertex 48.91593696478884 40.30330085896846 16.402416049876354
    vertex 48.91593696478767 38.75000000006932 15.210526380392157
    vertex 2.526689968362916e-12 40.30330085896038 16.402416049914642
  endloop
endfacet
facet normal -5.776303837910036e-13 0.6087614290087221 -0.793353340291234
  outer loop
    vertex 2.7071678232459813e-13 38.75000000006124 15.210526380430464
    vertex 2.526689968362916e-12 40.30330085896038 16.402416049914642
    vertex 48.91593696478767 38.75000000006932 15.210526380392157
  endloop
endfacet
facet normal -6.957821733101619e-13 0.38268343236508223 -0.9238795325112898
  outer loop
    vertex 48.91593696478776 36.94114283833819 14.461273211607464
    vertex 7.219114195322617e-13 36.94114283833011 14.461273211645793
    vertex 48.91593696478767 38.75000000006932 15.210526380392157
  endloop
endfacet
facet normal -6.957821733101619e-13 0.38268343236508223 -0.9238795325112898
  outer loop
    vertex 2.7071678232459813e-13 38.75000000006124 15.210526380430464
    vertex 48.91593696478767 38.75000000006932 15.210526380392157
    vertex 7.219114195322617e-13 36.94114283833011 14.461273211645793
  endloop
endfacet
facet normal -7.665171527194907e-13 0.13052619222005712 -0.9914448613738098
  outer loop
    vertex 48.91593696478776 36.94114283833819 14.461273211607464
    vertex 48.91593696478686 35.00000000006873 14.205716908775466
    vertex 7.219114195322617e-13 36.94114283833011 14.461273211645793
  endloop
endfacet
facet normal -7.665171527194907e-13 0.13052619222005712 -0.9914448613738098
  outer loop
    vertex 0.0 35.000000000062094 14.205716908813796
    vertex 7.219114195322617e-13 36.94114283833011 14.461273211645793
    vertex 48.91593696478686 35.00000000006873 14.205716908775466
  endloop
endfacet
facet normal 1.0 -7.822301868210659e-14 -7.816584224053519e-13
  outer loop
    vertex 621.9159369647963 27.500000000022617 21.70571690832862
    vertex 621.9159369647948 27.755556302854615 19.764574070059748
    vertex 621.9159369647975 27.755556302854615 23.64685974659749
  endloop
endfacet
facet normal 1.0 -7.822301868210659e-14 -7.816584224053519e-13
  outer loop
    vertex 621.9159369647991 28.504809471640343 25.455716908328576
    vertex 621.9159369647975 27.755556302854615 23.64685974659749
    vertex 621.9159369647948 27.755556302854615 19.764574070059748
  endloop
endfacet
facet normal 1.0 -7.822301868210659e-14 -7.816584224053519e-13
  outer loop
    vertex 621.9159369647937 28.504809471640343 17.955716908328657
    vertex 621.9159369647991 28.504809471640343 25.455716908328576
    vertex 621.9159369647948 27.755556302854615 19.764574070059748
  endloop
endfacet
facet normal 1.0 -7.822301868210659e-14 -7.816584224053519e-13
  outer loop
    vertex 621.9159369648003 29.69669914112407 27.00901776722767
    vertex 621.9159369647991 28.504809471640343 25.455716908328576
    vertex 621.9159369647937 28.504809471640343 17.955716908328657
  endloop
endfacet
facet normal 1.0 -7.822301868210659e-14 -7.816584224053519e-13
  outer loop
    vertex 621.915936964792 29.69669914112407 16.402416049429565
    vertex 621.9159369648003 29.69669914112407 27.00901776722767
    vertex 621.9159369647937 28.504809471640343 17.955716908328657
  endloop
endfacet
facet normal 1.0 -7.822301868210659e-14 -7.816584224053519e-13
  outer loop
    vertex 621.9159369648011 31.250000000023206 28.200907436711848
    vertex 621.9159369648003 29.69669914112407 27.00901776722767
    vertex 621.915936964792 29.69669914112407 16.402416049429565
  endloop
endfacet
facet normal 1.0 -7.822301868210659e-14 -7.816584224053519e-13
  outer loop
    vertex 621.9159369647911 31.250000000023206 15.210526379945435
    vertex 621.9159369648011 31.250000000023206 28.200907436711848
    vertex 621.915936964792 29.69669914112407 16.402416049429565
  endloop
endfacet
facet normal 1.0 -7.822301868210659e-14 -7.816584224053519e-13
  outer loop
    vertex 621.9159369648024 33.05885716175434 28.950160605496592
    vertex 621.9159369648011 31.250000000023206 28.200907436711848
    vertex 621.9159369647911 31.250000000023206 15.210526379945435
  endloop
endfacet
facet normal 1.0 -7.822301868210659e-14 -7.816584224053519e-13
  outer loop
    vertex 621.9159369647911 33.05885716175434 14.46127321116074
    vertex 621.9159369648024 33.05885716175434 28.950160605496592
    vertex 621.9159369647911 31.250000000023206 15.210526379945435
  endloop
endfacet
facet normal 1.0 -7.822301868210659e-14 -7.816584224053519e-13
  outer loop
    vertex 621.9159369648023 35.000000000023796 29.205716908328586
    vertex 621.9159369648024 33.05885716175434 28.950160605496592
    vertex 621.9159369647911 33.05885716175434 14.46127321116074
  endloop
endfacet
facet normal 1.0 -7.822301868210659e-14 -7.816584224053519e-13
  outer loop
    vertex 621.9159369647904 35.00000000002091 14.205716908328206
    vertex 621.9159369648023 35.000000000023796 29.205716908328586
    vertex 621.9159369647911 33.05885716175434 14.46127321116074
  endloop
endfacet
facet normal 1.0 -7.822301868210659e-14 -7.816584224053519e-13
  outer loop
    vertex 621.915936964791 36.94114283829181 14.461273211160744
    vertex 621.9159369648023 35.000000000023796 29.205716908328586
    vertex 621.9159369647904 35.00000000002091 14.205716908328206
  endloop
endfacet
facet normal 1.0 -7.822301868210659e-14 -7.816584224053519e-13
  outer loop
    vertex 621.9159369648028 36.94114283829037 28.95016060549605
    vertex 621.9159369648023 35.000000000023796 29.205716908328586
    vertex 621.915936964791 36.94114283829181 14.461273211160744
  endloop
endfacet
facet normal 1.0 -7.822301868210659e-14 -7.816584224053519e-13
  outer loop
    vertex 621.9159369648016 38.75000000002294 28.200907436711898
    vertex 621.9159369648028 36.94114283829037 28.95016060549605
    vertex 621.915936964791 36.94114283829181 14.461273211160744
  endloop
endfacet
facet normal 1.0 -7.822301868210659e-14 -7.816584224053519e-13
  outer loop
    vertex 621.915936964792 38.75000000002294 15.210526379945437
    vertex 621.9159369648016 38.75000000002294 28.200907436711898
    vertex 621.915936964791 36.94114283829181 14.461273211160744
  endloop
endfacet
facet normal 1.0 -7.822301868210659e-14 -7.816584224053519e-13
  outer loop
    vertex 621.9159369648007 40.30330085892208 27.00901776722772
    vertex 621.9159369648016 38.75000000002294 28.200907436711898
    vertex 621.915936964792 38.75000000002294 15.210526379945437
  endloop
endfacet
facet normal 1.0 -7.822301868210659e-14 -7.816584224053519e-13
  outer loop
    vertex 621.9159369647928 40.303300858922086 16.402416049429615
    vertex 621.9159369648007 40.30330085892208 27.00901776722772
    vertex 621.915936964792 38.75000000002294 15.210526379945437
  endloop
endfacet
facet normal 1.0 -7.822301868210659e-14 -7.816584224053519e-13
  outer loop
    vertex 621.9159369648004 41.49519052840581 25.45571690832863
    vertex 621.9159369648007 40.30330085892208 27.00901776722772
    vertex 621.9159369647928 40.303300858922086 16.402416049429615
  endloop
endfacet
facet normal 1.0 -7.822301868210659e-14 -7.816584224053519e-13
  outer loop
    vertex 621.9159369647942 41.495190528404365 17.955716908328164
    vertex 621.9159369648004 41.49519052840581 25.45571690832863
    vertex 621.9159369647928 40.303300858922086 16.402416049429615
  endloop
endfacet
facet normal 1.0 -7.822301868210659e-14 -7.816584224053519e-13
  outer loop
    vertex 621.9159369647955 42.24444369718865 19.764574070059236
    vertex 621.9159369648004 41.49519052840581 25.45571690832863
    vertex 621.9159369647942 41.495190528404365 17.955716908328164
  endloop
endfacet
facet normal 1.0 -7.822301868210659e-14 -7.816584224053519e-13
  outer loop
    vertex 621.9159369647986 42.24444369718865 23.646859746596974
    vertex 621.9159369648004 41.49519052840581 25.45571690832863
    vertex 621.9159369647955 42.24444369718865 19.764574070059236
  endloop
endfacet
facet normal 1.0 -7.822301868210659e-14 -7.816584224053519e-13
  outer loop
    vertex 621.9159369647974 42.50000000002065 21.705716908328103
    vertex 621.9159369647986 42.24444369718865 23.646859746596974
    vertex 621.9159369647955 42.24444369718865 19.764574070059236
  endloop
endfacet
facet normal -7.856084490351368e-13 -0.13052619222045841 -0.9914448613737569
  outer loop
    vertex 621.9159369647911 33.05885716175434 14.46127321116074
    vertex 601.915936964791 33.05885716175576 14.461273211176378
    vertex 621.9159369647904 35.00000000002091 14.205716908328206
  endloop
endfacet
facet normal -7.856084490351368e-13 -0.13052619222045841 -0.9914448613737569
  outer loop
    vertex 601.9159369647903 35.000000000022325 14.20571690834384
    vertex 621.9159369647904 35.00000000002091 14.205716908328206
    vertex 601.915936964791 33.05885716175576 14.461273211176378
  endloop
endfacet
facet normal -7.644065616824214e-13 0.13052619222019599 -0.9914448613737915
  outer loop
    vertex 621.915936964791 36.94114283829181 14.461273211160744
    vertex 621.9159369647904 35.00000000002091 14.205716908328206
    vertex 601.9159369647912 36.941142838293224 14.461273211176378
  endloop
endfacet
facet normal -7.644065616824214e-13 0.13052619222019599 -0.9914448613737915
  outer loop
    vertex 601.9159369647903 35.000000000022325 14.20571690834384
    vertex 601.9159369647912 36.941142838293224 14.461273211176378
    vertex 621.9159369647904 35.00000000002091 14.205716908328206
  endloop
endfacet
facet normal -6.911115217568286e-13 0.3826834323650698 -0.9238795325112951
  outer loop
    vertex 621.915936964792 38.75000000002294 15.210526379945437
    vertex 621.915936964791 36.94114283829181 14.461273211160744
    vertex 601.9159369647919 38.750000000024365 15.21052637996107
  endloop
endfacet
facet normal -6.911115217568286e-13 0.3826834323650698 -0.9238795325112951
  outer loop
    vertex 601.9159369647912 36.941142838293224 14.461273211176378
    vertex 601.9159369647919 38.750000000024365 15.21052637996107
    vertex 621.915936964791 36.94114283829181 14.461273211160744
  endloop
endfacet
facet normal -5.707216364821867e-13 0.6087614290087108 -0.7933533402912426
  outer loop
    vertex 621.9159369647928 40.303300858922086 16.402416049429615
    vertex 621.915936964792 38.75000000002294 15.210526379945437
    vertex 601.9159369647925 40.3033008589235 16.40241604944525
  endloop
endfacet
facet normal -5.707216364821867e-13 0.6087614290087108 -0.7933533402912426
  outer loop
    vertex 601.9159369647919 38.750000000024365 15.21052637996107
    vertex 601.9159369647925 40.3033008589235 16.40241604944525
    vertex 621.915936964792 38.75000000002294 15.210526379945437
  endloop
endfacet
facet normal -4.114339824037186e-13 0.7933533402916882 -0.6087614290081304
  outer loop
    vertex 621.9159369647928 40.303300858922086 16.402416049429615
    vertex 601.9159369647925 40.3033008589235 16.40241604944525
    vertex 621.9159369647942 41.495190528404365 17.955716908328164
  endloop
endfacet
facet normal -4.114339824037186e-13 0.7933533402916882 -0.6087614290081304
  outer loop
    vertex 601.9159369647941 41.49519052840578 17.955716908343803
    vertex 621.9159369647942 41.495190528404365 17.955716908328164
    vertex 601.9159369647925 40.3033008589235 16.40241604944525
  endloop
endfacet
facet normal -2.2410797370073966e-13 0.9238795325112983 -0.38268343236506247
  outer loop
    vertex 621.9159369647942 41.495190528404365 17.955716908328164
    vertex 601.9159369647941 41.49519052840578 17.955716908343803
    vertex 621.9159369647955 42.24444369718865 19.764574070059236
  endloop
endfacet
facet normal -2.2410797370073966e-13 0.9238795325112983 -0.38268343236506247
  outer loop
    vertex 601.9159369647954 42.24444369719007 19.764574070074868
    vertex 621.9159369647955 42.24444369718865 19.764574070059236
    vertex 601.9159369647941 41.49519052840578 17.955716908343803
  endloop
endfacet
facet normal -2.1511271495235346e-14 0.9914448613738096 -0.13052619222005837
  outer loop
    vertex 621.9159369647955 42.24444369718865 19.764574070059236
    vertex 601.9159369647954 42.24444369719007 19.764574070074868
    vertex 621.9159369647974 42.50000000002065 21.705716908328103
  endloop
endfacet
facet normal -2.1511271495235346e-14 0.9914448613738096 -0.13052619222005837
  outer loop
    vertex 601.9159369647977 42.50000000002206 21.70571690834374
    vertex 621.9159369647974 42.50000000002065 21.705716908328103
    vertex 601.9159369647954 42.24444369719007 19.764574070074868
  endloop
endfacet
facet normal 1.8255250439881416e-13 0.9914448613738096 0.13052619222005837
  outer loop
    vertex 621.9159369647974 42.50000000002065 21.705716908328103
    vertex 601.9159369647977 42.50000000002206 21.70571690834374
    vertex 621.9159369647986 42.24444369718865 23.646859746596974
  endloop
endfacet
facet normal 1.8255250439881416e-13 0.9914448613738096 0.13052619222005837
  outer loop
    vertex 601.9159369647988 42.24444369719007 23.64685974661261
    vertex 621.9159369647986 42.24444369718865 23.646859746596974
    vertex 601.9159369647977 42.50000000002206 21.70571690834374
  endloop
endfacet
facet normal 3.741755415138068e-13 0.923879532511733 0.38268343236401225
  outer loop
    vertex 621.9159369647986 42.24444369718865 23.646859746596974
    vertex 601.9159369647988 42.24444369719007 23.64685974661261
    vertex 621.9159369648004 41.49519052840581 25.45571690832863
  endloop
endfacet
facet normal 3.741755415138068e-13 0.923879532511733 0.38268343236401225
  outer loop
    vertex 601.9159369648003 41.49519052840723 25.45571690834426
    vertex 621.9159369648004 41.49519052840581 25.45571690832863
    vertex 601.9159369647988 42.24444369719007 23.64685974661261
  endloop
endfacet
facet normal 5.402993577444804e-13 0.7933533402912564 0.608761429008693
  outer loop
    vertex 621.9159369648004 41.49519052840581 25.45571690832863
    vertex 601.9159369648003 41.49519052840723 25.45571690834426
    vertex 621.9159369648007 40.30330085892208 27.00901776722772
  endloop
endfacet
facet normal 5.402993577444804e-13 0.7933533402912564 0.608761429008693
  outer loop
    vertex 601.915936964801 40.3033008589235 27.009017767243353
    vertex 621.9159369648007 40.30330085892208 27.00901776722772
    vertex 601.9159369648003 41.49519052840723 25.45571690834426
  endloop
endfacet
facet normal 6.696011139717906e-13 0.6087614290087109 0.7933533402912428
  outer loop
    vertex 621.9159369648016 38.75000000002294 28.200907436711898
    vertex 621.9159369648007 40.30330085892208 27.00901776722772
    vertex 601.9159369648015 38.750000000024365 28.200907436727533
  endloop
endfacet
facet normal 6.696011139717906e-13 0.6087614290087109 0.7933533402912428
  outer loop
    vertex 601.915936964801 40.3033008589235 27.009017767243353
    vertex 601.9159369648015 38.750000000024365 28.200907436727533
    vertex 621.9159369648007 40.30330085892208 27.00901776722772
  endloop
endfacet
facet normal 7.532710638386825e-13 0.3826834323644427 0.9238795325115549
  outer loop
    vertex 621.9159369648028 36.94114283829037 28.95016060549605
    vertex 621.9159369648016 38.75000000002294 28.200907436711898
    vertex 601.9159369648025 36.94114283829178 28.950160605511684
  endloop
endfacet
facet normal 7.532710638386825e-13 0.3826834323644427 0.9238795325115549
  outer loop
    vertex 601.9159369648015 38.750000000024365 28.200907436727533
    vertex 601.9159369648025 36.94114283829178 28.950160605511684
    vertex 621.9159369648016 38.75000000002294 28.200907436711898
  endloop
endfacet
facet normal 7.856080760781979e-13 0.13052619222048228 0.9914448613737538
  outer loop
    vertex 621.9159369648028 36.94114283829037 28.95016060549605
    vertex 601.9159369648025 36.94114283829178 28.950160605511684
    vertex 621.9159369648023 35.000000000023796 29.205716908328586
  endloop
endfacet
facet normal 7.856080760781979e-13 0.13052619222048228 0.9914448613737538
  outer loop
    vertex 601.9159369648021 35.00000000002522 29.205716908344222
    vertex 621.9159369648023 35.000000000023796 29.205716908328586
    vertex 601.9159369648025 36.94114283829178 28.950160605511684
  endloop
endfacet
facet normal 7.644068121237659e-13 -0.13052619222004344 0.9914448613738116
  outer loop
    vertex 621.9159369648024 33.05885716175434 28.950160605496592
    vertex 621.9159369648023 35.000000000023796 29.205716908328586
    vertex 601.9159369648023 33.05885716175576 28.950160605512224
  endloop
endfacet
facet normal 7.644068121237659e-13 -0.13052619222004344 0.9914448613738116
  outer loop
    vertex 601.9159369648021 35.00000000002522 29.205716908344222
    vertex 601.9159369648023 33.05885716175576 28.950160605512224
    vertex 621.9159369648023 35.000000000023796 29.205716908328586
  endloop
endfacet
facet normal 6.911117783900937e-13 -0.3826834323650698 0.9238795325112951
  outer loop
    vertex 621.9159369648024 33.05885716175434 28.950160605496592
    vertex 601.9159369648023 33.05885716175576 28.950160605512224
    vertex 621.9159369648011 31.250000000023206 28.200907436711848
  endloop
endfacet
facet normal 6.911117783900937e-13 -0.3826834323650698 0.9238795325112951
  outer loop
    vertex 601.9159369648013 31.250000000024624 28.20090743672746
    vertex 621.9159369648011 31.250000000023206 28.200907436711848
    vertex 601.9159369648023 33.05885716175576 28.950160605512224
  endloop
endfacet
facet normal 5.707205047346899e-13 -0.6087614290087108 0.7933533402912426
  outer loop
    vertex 621.9159369648011 31.250000000023206 28.200907436711848
    vertex 601.9159369648013 31.250000000024624 28.20090743672746
    vertex 621.9159369648003 29.69669914112407 27.00901776722767
  endloop
endfacet
facet normal 5.707205047346899e-13 -0.6087614290087108 0.7933533402912426
  outer loop
    vertex 601.9159369648002 29.696699141125485 27.009017767243282
    vertex 621.9159369648003 29.69669914112407 27.00901776722767
    vertex 601.9159369648013 31.250000000024624 28.20090743672746
  endloop
endfacet
facet normal 4.1143441104997325e-13 -0.7933533402912565 0.608761429008693
  outer loop
    vertex 621.9159369647991 28.504809471640343 25.455716908328576
    vertex 621.9159369648003 29.69669914112407 27.00901776722767
    vertex 601.9159369647994 28.50480947164176 25.45571690834419
  endloop
endfacet
facet normal 4.1143441104997325e-13 -0.7933533402912565 0.608761429008693
  outer loop
    vertex 601.9159369648002 29.696699141125485 27.009017767243282
    vertex 601.9159369647994 28.50480947164176 25.45571690834419
    vertex 621.9159369648003 29.69669914112407 27.00901776722767
  endloop
endfacet
facet normal 2.2410781610494282e-13 -0.9238795325112998 0.38268343236505825
  outer loop
    vertex 621.9159369647975 27.755556302854615 23.64685974659749
    vertex 621.9159369647991 28.504809471640343 25.455716908328576
    vertex 601.9159369647974 27.75555630285603 23.6468597466131
  endloop
endfacet
facet normal 2.2410781610494282e-13 -0.9238795325112998 0.38268343236505825
  outer loop
    vertex 601.9159369647994 28.50480947164176 25.45571690834419
    vertex 601.9159369647974 27.75555630285603 23.6468597466131
    vertex 621.9159369647991 28.504809471640343 25.455716908328576
  endloop
endfacet
facet normal 2.1511838602768124e-14 -0.9914448613738096 0.13052619222005837
  outer loop
    vertex 621.9159369647963 27.500000000022617 21.70571690832862
    vertex 621.9159369647975 27.755556302854615 23.64685974659749
    vertex 601.9159369647963 27.50000000002403 21.70571690834423
  endloop
endfacet
facet normal 2.1511838602768124e-14 -0.9914448613738096 0.13052619222005837
  outer loop
    vertex 601.9159369647974 27.75555630285603 23.6468597466131
    vertex 601.9159369647963 27.50000000002403 21.70571690834423
    vertex 621.9159369647975 27.755556302854615 23.64685974659749
  endloop
endfacet
facet normal -1.8255118362433232e-13 -0.9914448613738096 -0.13052619222005837
  outer loop
    vertex 621.9159369647948 27.755556302854615 19.764574070059748
    vertex 621.9159369647963 27.500000000022617 21.70571690832862
    vertex 601.9159369647947 27.75555630285603 19.76457407007536
  endloop
endfacet
facet normal -1.8255118362433232e-13 -0.9914448613738096 -0.13052619222005837
  outer loop
    vertex 601.9159369647963 27.50000000002403 21.70571690834423
    vertex 601.9159369647947 27.75555630285603 19.76457407007536
    vertex 621.9159369647963 27.500000000022617 21.70571690832862
  endloop
endfacet
facet normal -3.741757207417051e-13 -0.9238795325112998 -0.38268343236505825
  outer loop
    vertex 621.9159369647937 28.504809471640343 17.955716908328657
    vertex 621.9159369647948 27.755556302854615 19.764574070059748
    vertex 601.9159369647936 28.50480947164176 17.95571690834434
  endloop
endfacet
facet normal -3.741757207417051e-13 -0.9238795325112998 -0.38268343236505825
  outer loop
    vertex 601.9159369647947 27.75555630285603 19.76457407007536
    vertex 601.9159369647936 28.50480947164176 17.95571690834434
    vertex 621.9159369647948 27.755556302854615 19.764574070059748
  endloop
endfacet
facet normal -5.402965001059153e-13 -0.7933533402912565 -0.608761429008693
  outer loop
    vertex 621.915936964792 29.69669914112407 16.402416049429565
    vertex 621.9159369647937 28.504809471640343 17.955716908328657
    vertex 601.9159369647919 29.696699141125485 16.402416049445247
  endloop
endfacet
facet normal -5.402965001059153e-13 -0.7933533402912565 -0.608761429008693
  outer loop
    vertex 601.9159369647936 28.50480947164176 17.95571690834434
    vertex 601.9159369647919 29.696699141125485 16.402416049445247
    vertex 621.9159369647937 28.504809471640343 17.955716908328657
  endloop
endfacet
facet normal -6.695984543810827e-13 -0.6087614290087109 -0.7933533402912428
  outer loop
    vertex 621.915936964792 29.69669914112407 16.402416049429565
    vertex 601.9159369647919 29.696699141125485 16.402416049445247
    vertex 621.9159369647911 31.250000000023206 15.210526379945435
  endloop
endfacet
facet normal -6.695984543810827e-13 -0.6087614290087109 -0.7933533402912428
  outer loop
    vertex 601.915936964791 31.250000000024624 15.21052637996107
    vertex 621.9159369647911 31.250000000023206 15.210526379945435
    vertex 601.9159369647919 29.696699141125485 16.402416049445247
  endloop
endfacet
facet normal -7.532727921765898e-13 -0.3826834323650698 -0.9238795325112951
  outer loop
    vertex 621.9159369647911 33.05885716175434 14.46127321116074
    vertex 621.9159369647911 31.250000000023206 15.210526379945435
    vertex 601.915936964791 33.05885716175576 14.461273211176378
  endloop
endfacet
facet normal -7.532727921765898e-13 -0.3826834323650698 -0.9238795325112951
  outer loop
    vertex 601.915936964791 31.250000000024624 15.21052637996107
    vertex 601.915936964791 33.05885716175576 14.461273211176378
    vertex 621.9159369647911 31.250000000023206 15.210526379945435
  endloop
endfacet
endsolid RM2005
